<?xml version="1.0" encoding="UTF-8"?>
<!DOCTYPE svg PUBLIC "-//W3C//DTD SVG 1.1//EN" "http://www.w3.org/Graphics/SVG/1.1/DTD/svg11.dtd">
<!-- Creator: CorelDRAW -->
<svg xmlns="http://www.w3.org/2000/svg" xml:space="preserve" width="100%" height="100%" version="1.1" shape-rendering="geometricPrecision" text-rendering="geometricPrecision" image-rendering="optimizeQuality" fill-rule="evenodd" clip-rule="evenodd"
viewBox="0 0 8396.09 2146.82"
 xmlns:xlink="http://www.w3.org/1999/xlink"
 xmlns:xodm="http://www.corel.com/coreldraw/odm/2003">
 <defs>
    <filter id="f1" x="0" y="0" width="200%" height="200%">
      <feOffset result="offOut" in="SourceGraphic" dx="20" dy="20" />
      <feColorMatrix result = "matrixOut" in = "offOut" type = "matrix" values = "0.2 0 0 0 0 0 0.2 0 0 0 0 0 0.2 0 0 0 0 0 1 0"/>
      <feGaussianBlur result="blurOut" in="matrixOut" stdDeviation="10" />
      <feBlend in="SourceGraphic" in2="blurOut" mode="normal" />
    </filter>
  </defs>
  <metadata id="CorelCorpID_0Corel-Layer"/>
  <g id="_105553349185056" filter="url(#f1)">
   <g>
    <path fill="#108775" d="M1909.38 1073.4l-835.97 -835.97 -835.97 835.97 835.97 835.98 835.97 -835.98zm163.6 -135.71l-863.86 -863.86c-74.92,-74.92 -196.5,-74.92 -271.43,0l-863.86 863.86c-74.92,74.93 -74.92,196.51 0,271.43l863.86 863.86c74.93,74.93 196.51,74.93 271.43,0l863.86 -863.86c74.93,-75.02 74.93,-196.5 0,-271.43z"/>
  </g>
   <g>
    <path fill="#00C58E" d="M979.44 1458.58l28.82 0c36.33,-25.86 35.92,-35.02 66.54,-75.79l414.44 -563.8c13.16,-17.76 50.99,-60.72 45.83,-91.56 -7.36,-44 -55.82,-47.73 -84,-27.1 -29.76,21.79 -52.46,43.29 -77.4,63.58 -31.21,25.39 -46.48,38.92 -74.47,62.22l-305.49 250.63 -237.81 -141.2c-39.9,-23.68 -90.74,-66.61 -128.05,-36.07 -45.19,36.99 14.34,96.98 32.39,123.71l272.89 387.26c20.28,28.17 18.03,26.24 46.31,48.12z"/>
   </g>
  <path fill="#00C58E" fill-rule="nonzero" d="M3002.48 692.21c0,-39.86 -32.14,-70.71 -70.71,-70.71l-548.98 0c-39.85,0 -70.71,30.85 -70.71,70.71 0,38.57 30.86,72 70.71,72l203.14 0 0 686.54c0,39.85 32.14,70.71 70.71,70.71 39.86,0 70.71,-30.86 70.71,-70.71l0 -686.54 204.42 0c38.57,0 70.71,-33.43 70.71,-72z"/>
  <path id="1" fill="#00C58E" fill-rule="nonzero" d="M3570.74 948.06c0,-38.57 -30.86,-69.43 -68.14,-69.43 -33.43,0 -59.14,24.43 -66.85,56.57 -48.86,-34.71 -106.71,-56.57 -171,-56.57 -87.42,0 -163.28,37.28 -218.56,96.42 -55.28,57.86 -87.42,137.57 -87.42,226.28 0,87.43 32.14,167.14 87.42,226.28 55.28,57.85 131.14,93.85 218.56,93.85 64.29,0 122.14,-20.57 171,-55.28 7.71,30.85 33.42,55.28 66.85,55.28 37.28,0 68.14,-30.86 68.14,-68.14l0 -251.99c0,0 0,0 0,0l0 -253.27zm-186.42 385.69c-30.86,32.15 -74.57,50.14 -119.57,50.14 -46.28,0 -89.99,-17.99 -119.56,-50.14 -30.86,-33.42 -48.86,-79.71 -48.86,-132.42 0,-54 18,-100.28 48.86,-132.42 29.57,-34.72 73.28,-52.71 119.56,-52.71 45,0 88.71,17.99 119.57,52.71 30.86,32.14 50.14,78.42 50.14,132.42 0,52.71 -19.28,99 -50.14,132.42z"/>
  <path id="2" fill="#00C58E" fill-rule="nonzero" d="M3800.87 1432.75c51.43,41.14 128.57,87.42 228.85,88.71 62.99,0 120.85,-19.28 167.13,-51.43 46.29,-33.42 81,-86.14 81,-149.13 0,-29.57 -9,-59.14 -24.43,-84.86 -21.85,-35.99 -56.57,-60.42 -91.28,-75.85 -37.28,-18 -77.14,-29.57 -119.57,-37.28l-1.28 0 -1.29 -1.29c-43.71,-7.71 -77.14,-19.29 -93.85,-30.86 -9,-5.14 -12.86,-10.28 -14.14,-12.85 -2.57,-3.86 -2.57,-5.15 -2.57,-10.29 0,-6.43 3.85,-18 20.57,-29.57 16.71,-12.85 44.99,-23.14 77.14,-23.14 41.14,0 77.14,20.57 118.28,47.57 32.14,21.86 74.57,12.86 95.14,-18 19.28,-32.14 10.28,-74.57 -20.57,-95.14l0 0c-41.15,-28.28 -104.14,-70.71 -192.85,-70.71 -59.14,0 -113.14,16.71 -158.14,47.57 -42.43,32.14 -75.85,82.28 -75.85,141.42 0,29.57 7.71,57.86 21.85,81 23.14,34.71 54,57.85 88.71,74.57 33.43,15.42 72,25.71 111.86,33.42l1.28 0 0 0c46.28,9 84.85,23.15 102.85,36 10.29,6.43 15.43,11.57 16.72,15.43 2.57,3.86 3.85,6.43 3.85,12.86 0,10.28 -5.14,23.14 -23.14,38.57 -20.57,12.85 -52.71,24.42 -87.42,24.42 -50.14,1.29 -108,-28.28 -141.42,-56.56 -28.29,-24.43 -73.29,-20.58 -96.43,10.28 -23.14,28.29 -19.28,72 9,95.14z"/>
  <path id="3" fill="#00C58E" fill-rule="nonzero" d="M4525.98 1521.46c39.85,0 71.99,-32.14 71.99,-70.71l0 -113.14 70.72 -70.71 188.99 228.85c12.85,16.71 33.43,25.71 54,25.71 15.42,0 32.14,-5.14 44.99,-16.71 30.86,-24.43 34.72,-69.43 10.29,-100.29l-197.99 -237.84 192.85 -192.85c28.28,-27 28.28,-72 0,-100.28 -27,-27 -73.29,-27 -100.29,0l-263.56 263.56 0 -444.84c0,-38.57 -32.14,-70.71 -71.99,-70.71 -39.86,0 -70.71,32.14 -70.71,70.71l0 758.54c0,38.57 30.85,70.71 70.71,70.71z"/>
  <path id="4" fill="white" fill-rule="nonzero" d="M6338.76 636.93c-37.29,-15.43 -78.43,1.28 -93.85,37.28l-250.71 595.26 -165.85 -394.7c-12.85,-28.28 -39.85,-43.71 -66.85,-43.71 -28.29,0 -55.29,15.43 -66.86,43.71l-165.85 394.7 -251.99 -595.26c-14.14,-36 -56.57,-52.71 -91.28,-37.28 -37.28,14.14 -52.71,56.56 -38.57,91.28l316.27 749.54c2.58,3.85 3.86,9 6.43,11.57 0,0 0,1.28 0,1.28 2.57,2.58 3.86,5.15 6.43,7.72 1.29,2.57 1.29,2.57 2.57,3.86 3.86,1.28 5.14,3.85 9,6.42 0,0 0,0 1.29,0 2.57,2.57 7.71,6.43 11.57,7.72 1.28,0 1.28,0 2.57,1.28 2.57,0 5.14,1.29 9,2.57 1.28,0 2.57,0 3.86,0 3.85,1.29 9,1.29 12.85,1.29 0,0 0,0 0,0 3.86,0 7.72,0 11.57,-1.29 1.29,0 2.58,0 3.86,0 2.57,-1.28 5.14,-2.57 10.29,-2.57 0,-1.28 1.28,-1.28 1.28,-1.28 0,0 0,0 1.29,0 2.57,-1.29 6.43,-5.15 10.28,-7.72 0,0 0,0 2.57,0 2.58,-2.57 5.15,-5.14 7.72,-6.42 0,-1.29 1.28,-1.29 1.28,-3.86 2.57,-2.57 5.15,-5.14 7.72,-7.72 0,0 0,-1.28 1.28,-1.28 1.29,-2.57 3.86,-7.72 5.15,-11.57l168.42 -398.56 168.42 398.56c1.28,3.85 2.57,9 5.14,11.57 0,0 0,1.28 2.57,1.28 1.29,2.58 3.86,5.15 5.15,7.72 1.28,2.57 1.28,2.57 2.57,3.86 2.57,1.28 5.14,3.85 9,6.42 0,0 0,0 1.28,0 2.57,2.57 6.43,6.43 11.57,7.72 1.29,0 1.29,0 2.57,1.28 2.58,0 5.15,1.29 9,2.57 0,0 1.29,0 3.86,0 3.86,1.29 7.71,1.29 11.57,1.29 5.14,0 9,0 12.86,-1.29 0,0 1.28,0 2.57,0 3.86,-1.28 7.71,-2.57 10.28,-2.57 0,-1.28 1.29,-1.28 1.29,-1.28 0,0 1.29,0 1.29,0 5.14,-1.29 7.71,-5.15 11.57,-7.72 0,0 1.28,0 1.28,0 2.57,-2.57 6.43,-5.14 9,-6.42 0,-1.29 1.29,-1.29 1.29,-3.86 2.57,-2.57 5.14,-5.14 6.43,-7.72 0,0 1.28,-1.28 1.28,-1.28 2.57,-2.57 5.14,-7.72 6.43,-11.57l314.99 -749.54c15.43,-34.72 -1.29,-77.14 -36,-91.28z"/>
  <path id="5" fill="white" fill-rule="nonzero" d="M6788.74 1525.32c84.85,0 161.99,-37.29 214.71,-97.71 57.85,-56.57 89.99,-136.28 89.99,-226.28 0,-87.42 -32.14,-163.28 -89.99,-224.99 -52.72,-60.43 -129.86,-97.71 -214.71,-97.71 -88.71,0 -163.28,37.28 -221.13,97.71 -55.29,61.71 -88.71,137.57 -88.71,224.99 0,90 33.42,169.71 88.71,226.28 57.85,60.42 132.42,97.71 221.13,97.71zm-123.42 -457.7c32.14,-28.28 74.57,-48.85 123.42,-48.85 45,0 86.14,20.57 118.28,48.85 32.14,34.71 50.14,81 50.14,133.71 0,55.28 -18,100.28 -50.14,136.28 -32.14,30.86 -73.28,47.57 -118.28,47.57 -48.85,0 -91.28,-16.71 -123.42,-47.57 -29.57,-36 -46.29,-81 -46.29,-136.28 0,-52.71 16.72,-99 46.29,-133.71z"/>
  <path id="6" fill="white" fill-rule="nonzero" d="M7614.13 879.92c-64.28,-1.29 -119.57,21.85 -161.99,50.14 -9,6.42 -19.29,16.71 -27,25.71l0 -9c0,-37.28 -32.14,-66.85 -70.71,-66.85 -37.29,0 -68.14,29.57 -68.14,66.85l0 506.55c0,37.28 30.85,68.14 68.14,68.14 38.57,0 70.71,-30.86 70.71,-68.14l0 -244.28c6.43,-17.99 21.85,-66.85 52.71,-107.99 15.43,-24.43 34.71,-46.28 59.14,-61.71 21.86,-16.72 47.57,-24.43 77.14,-24.43 38.57,0 68.14,-32.14 68.14,-68.14 0,-37.28 -29.57,-66.85 -68.14,-66.85z"/>
  <path id="7" fill="white" fill-rule="nonzero" d="M7921.4 1521.46c39.85,0 71.99,-32.14 71.99,-70.71l0 -113.14 70.72 -70.71 188.99 228.85c12.85,16.71 33.43,25.71 54,25.71 15.42,0 32.14,-5.14 44.99,-16.71 30.86,-24.43 34.72,-69.43 10.29,-100.29l-197.99 -237.84 192.85 -192.85c28.28,-27 28.28,-72 0,-100.28 -27,-27 -73.29,-27 -100.29,0l-263.56 263.56 0 -444.84c0,-38.57 -32.14,-70.71 -71.99,-70.71 -39.86,0 -70.71,32.14 -70.71,70.71l0 758.54c0,38.57 30.85,70.71 70.71,70.71z"/>
 </g>
</svg>
